<svg width="33" height="56" viewBox="0 0 33 56" fill="none" xmlns="http://www.w3.org/2000/svg">
<g clip-path="url(#clip0_384_3070)">
<path d="M16.0867 0.649426C24.5958 0.649426 31.5222 7.55282 31.5222 16.0408V39.9624C31.5222 48.4472 24.599 55.3538 16.0867 55.3538C7.57444 55.3538 0.651285 48.4472 0.651285 39.9624V16.0408C0.651285 7.55282 7.57444 0.649426 16.0867 0.649426ZM16.0867 0C7.19995 0 0 7.1794 0 16.0408V39.9624C0 48.8206 7.19995 56.0032 16.0867 56.0032C24.9703 56.0032 32.1735 48.8238 32.1735 39.9624V16.0408C32.1702 7.1794 24.9703 0 16.0867 0Z" fill="#5B6068"/>
<path d="M16.4123 0H15.761V6.25397H16.4123V0Z" fill="#5B6068"/>
<path d="M16.4123 16.2744H15.761V22.5284H16.4123V16.2744Z" fill="#5B6068"/>
<path d="M16.0868 15.4433C15.3379 15.4433 14.7322 14.8361 14.7322 14.0925V8.41331C14.7322 7.66647 15.3411 7.0625 16.0868 7.0625C16.8326 7.0625 17.4415 7.66971 17.4415 8.41331V14.0925C17.4415 14.8394 16.8326 15.4433 16.0868 15.4433ZM16.0868 7.70868C15.6993 7.70868 15.3835 8.02365 15.3835 8.41006V14.0893C15.3835 14.4757 15.6993 14.7907 16.0868 14.7907C16.4744 14.7907 16.7902 14.4757 16.7902 14.0893V8.41006C16.7902 8.02365 16.4744 7.70868 16.0868 7.70868Z" fill="#5B6068"/>
<path d="M16.0869 23.9379C16.8404 23.9379 17.4513 23.3288 17.4513 22.5773C17.4513 21.8259 16.8404 21.2168 16.0869 21.2168C15.3333 21.2168 14.7224 21.8259 14.7224 22.5773C14.7224 23.3288 15.3333 23.9379 16.0869 23.9379Z" fill="#5B6068"/>
</g>
<defs>
<clipPath id="clip0_384_3070">
<rect width="32.1702" height="56" fill="white"/>
</clipPath>
</defs>
</svg>
