<svg width="556" height="113" viewBox="0 0 556 113" fill="none" xmlns="http://www.w3.org/2000/svg">
<g clip-path="url(#clip0_3205_22527)">
<path d="M40.9784 42.6508L28.799 82.4685H8.41769L20.5971 42.6508H0L3.88509 29.9941L65.4606 29.9941L61.5756 42.6508H40.9784Z" fill="#F2F2F7"/>
<path d="M103.572 83.2692C91.7313 83.2692 81.1861 80.4977 74.6184 76.9255L87.9387 65.5622C92.4713 68.1797 101.012 70.7973 107.796 70.7973C115.011 70.7973 117.601 69.9042 118.341 67.4407C118.927 65.5006 116.676 64.2996 107.333 62.6675C90.5288 59.7727 83.0978 56.3237 86.3045 45.8535C89.3262 35.9992 102.554 29.3475 120.253 29.3475C132.71 29.3475 141.066 31.5031 147.603 35.3833L134.282 46.7465C128.763 43.6055 122.812 41.8194 115.35 41.8194C109.276 41.8194 107.395 43.1743 106.84 45.022C106.254 46.9621 108.597 47.8552 117.539 49.4257C134.991 52.5668 141.929 56.6009 138.938 66.3628C135.269 78.3112 121.085 83.2384 103.51 83.2384L103.572 83.2692Z" fill="#F2F2F7"/>
<path d="M208.407 82.4685L209.209 79.8817C205.077 81.8218 199.835 83.2691 194.84 83.2999C185.652 83.3307 178.961 78.6191 181.643 69.8734C184.203 61.4972 193.268 57.1859 204.831 57.1859C209.826 57.1859 212.94 57.8634 215.684 58.8181L216.27 56.878C217.318 53.4598 215.067 52.2896 209.98 52.2896C204.368 52.2896 199.866 53.0286 193.915 55.0919L191.726 46.2538C199.095 43.9442 206.866 42.6816 216.332 42.6816C231.625 42.6816 236.22 49.2717 233.845 57.1551L226.106 82.4685H208.407ZM213.279 66.5784C211.398 65.9009 209.147 65.4697 205.601 65.4697C201.747 65.4697 199.311 66.9479 198.51 69.627C197.77 72.0598 198.972 73.8459 203.042 73.8459C206.156 73.8459 209.548 72.9529 211.645 71.9059L213.279 66.5476V66.5784Z" fill="#F2F2F7"/>
<path d="M274.639 82.4685L286.571 43.5131H305.319L293.386 82.4685H274.67H274.639ZM296.778 40.68C290.642 40.68 286.849 38.1548 288.082 34.0591C289.254 30.2713 294.65 27.5922 300.786 27.5922C307.23 27.5922 310.899 30.2713 309.728 34.0591C308.494 38.1548 303.222 40.68 296.778 40.68Z" fill="#F2F2F7"/>
<path d="M325.669 83.2691C310.591 83.2691 301.865 76.3711 305.997 62.9446C310.159 49.3641 323.017 42.6816 338.095 42.6816C353.173 42.6816 362.053 49.3641 357.89 62.9446C353.789 76.3711 340.747 83.2691 325.669 83.2691ZM334.796 53.5214C329.893 53.5214 326.532 56.3545 324.528 62.9446C322.555 69.4115 324.096 72.4294 328.999 72.4294C333.902 72.4294 337.324 69.3807 339.297 62.9446C341.333 56.3237 339.698 53.5214 334.796 53.5214Z" fill="#F2F2F7"/>
<path d="M389.372 82.4685L396.125 60.3578C397.666 55.3075 395.693 53.9833 391.839 53.9833C387.985 53.9833 385.086 55.3075 383.575 60.2038L376.761 82.4685H358.014L369.947 43.513H388.663L387.861 46.0998C391.87 44.2521 396.186 42.6816 402.631 42.6816C412.004 42.6816 416.475 46.1922 416.475 52.6591C416.475 54.4452 416.136 56.4469 415.458 58.6641L408.15 82.4685H389.31H389.372Z" fill="#F2F2F7"/>
<path d="M499.11 0C467.999 0 442.807 25.1594 442.807 56.2313C442.807 87.3033 467.999 112.463 499.11 112.463C530.222 112.463 555.413 87.3033 555.413 56.2313C555.413 25.1594 530.222 0 499.11 0ZM499.11 93.7086C478.39 93.7086 461.585 76.9254 461.585 56.2313C461.585 35.5372 478.39 18.754 499.11 18.754C519.831 18.754 536.635 35.5372 536.635 56.2313C536.635 76.9254 519.831 93.7086 499.11 93.7086Z" fill="#F2F2F7"/>
<path d="M499.11 37.4773H476.602V50.9654H490.878V82.4685H499.11H507.374V50.9654H521.65V37.4773H499.141H499.11Z" fill="#F2F2F7"/>
<path d="M73.7242 26.2372L68.6982 42.6508H78.781L90.4979 26.2372H73.7242Z" fill="#F2F2F7"/>
<path d="M263.816 53.9833H275.687L278.894 43.5131H267.023L271.648 28.3928L251.822 33.6587L248.8 43.5131H236.713L239.519 53.9833H245.593L240.413 70.8897C237.7 79.7278 241.184 83.2692 251.082 83.2692C256.385 83.2692 261.195 82.4685 265.234 81.2059L270.291 71.444C268.657 71.5979 264.895 71.9367 262.983 71.9367C259.869 71.9367 258.574 71.0436 259.499 68.0873L263.816 53.9833Z" fill="#F2F2F7"/>
<path d="M171.283 53.9833H184.449L181.859 43.5131H174.521L179.146 28.3928L159.32 33.6587L156.298 43.5131H147.973L144.766 53.9833H153.091L147.911 70.8897C145.198 79.7278 148.682 83.2692 158.58 83.2692C163.883 83.2692 168.724 82.4685 172.732 81.2059L175.477 71.6287C173.75 71.7827 171.715 71.9059 170.481 71.9059C167.367 71.9059 166.072 71.0128 166.997 68.0565L171.314 53.9525L171.283 53.9833Z" fill="#F2F2F7"/>
</g>
<defs>
<clipPath id="clip0_3205_22527">
<rect width="555.413" height="112.432" fill="white"/>
</clipPath>
</defs>
</svg>
