<svg width="220" height="48" viewBox="0 0 220 48" fill="none" xmlns="http://www.w3.org/2000/svg">
<g clip-path="url(#clip0_3299_320)">
<path d="M14.0048 4C8.47971 4 4 8.46982 4 13.9839C4 19.4981 8.47971 23.9655 14.0048 23.9655L24.0095 13.9839C24.0095 8.46982 19.5322 4 14.0048 4Z" fill="black"/>
<path d="M14.0048 44.0001C19.5298 44.0001 24.0095 39.5302 24.0095 34.0161C24.0095 28.502 19.5298 24.0345 14.0048 24.0345L4 34.0185C4 39.5326 8.47971 44.0024 14.0048 44.0024" fill="black"/>
<path d="M33.9953 4C28.4702 4 23.9905 8.46982 23.9905 13.9839C23.9905 19.4981 28.4702 23.9655 33.9953 23.9655L44 13.9839C44 8.46982 39.5203 4 33.9953 4Z" fill="black"/>
<path d="M33.9953 44.0001C39.5203 44.0001 44 39.5302 44 34.0161C44 28.502 39.5203 24.0345 33.9953 24.0345L23.9905 34.0161C23.9905 39.5302 28.4702 44.0001 33.9953 44.0001Z" fill="black"/>
</g>
<path d="M68.7109 21.0586C68.6328 20.0234 67.8711 19.418 66.5039 19.418C65.1562 19.418 64.4727 20.0039 64.4531 20.8047C64.4336 21.6836 65.293 22.1133 66.5625 22.3867L67.793 22.6797C70.5078 23.2852 72.0898 24.6328 72.1094 26.8984C72.0898 29.5742 70.0195 31.1953 66.5039 31.1953C62.9883 31.1953 60.7031 29.5938 60.6445 26.3516H63.8477C63.9258 27.7188 64.9414 28.4219 66.4648 28.4219C67.8711 28.4219 68.7109 27.7969 68.7305 26.8984C68.7109 26.0781 67.9883 25.6484 66.4258 25.2969L64.9414 24.9453C62.5 24.3789 61.0156 23.168 61.0156 21.0391C60.9961 18.4219 63.3203 16.6641 66.5234 16.6641C69.7852 16.6641 71.875 18.4414 71.9141 21.0586H68.7109ZM80.5664 22.6602V25.1992H74.043V22.6602H80.5664ZM90.5469 21.0586C90.4688 20.0234 89.707 19.418 88.3398 19.418C86.9922 19.418 86.3086 20.0039 86.2891 20.8047C86.2695 21.6836 87.1289 22.1133 88.3984 22.3867L89.6289 22.6797C92.3438 23.2852 93.9258 24.6328 93.9453 26.8984C93.9258 29.5742 91.8555 31.1953 88.3398 31.1953C84.8242 31.1953 82.5391 29.5938 82.4805 26.3516H85.6836C85.7617 27.7188 86.7773 28.4219 88.3008 28.4219C89.707 28.4219 90.5469 27.7969 90.5664 26.8984C90.5469 26.0781 89.8242 25.6484 88.2617 25.2969L86.7773 24.9453C84.3359 24.3789 82.8516 23.168 82.8516 21.0391C82.832 18.4219 85.1562 16.6641 88.3594 16.6641C91.6211 16.6641 93.7109 18.4414 93.75 21.0586H90.5469ZM102.598 34.9844V29.2812H102.52C102.09 30.2383 101.152 31.1562 99.5312 31.1562C97.168 31.1562 95.2734 29.3008 95.2734 25.707C95.2734 21.9766 97.2852 20.2578 99.5117 20.2578C101.211 20.2578 102.109 21.2539 102.52 22.2109H102.617V20.3945H105.879V34.9844H102.598ZM100.645 28.5781C101.914 28.5781 102.656 27.4453 102.656 25.6875C102.656 23.9297 101.934 22.8359 100.645 22.8359C99.3555 22.8359 98.6523 23.9688 98.6523 25.6875C98.6523 27.4453 99.375 28.5781 100.645 28.5781ZM114.824 26.4297V20.3945H118.105V31H114.98V29.0469H114.863C114.395 30.3164 113.223 31.1367 111.621 31.1367C109.453 31.1367 107.988 29.5742 107.988 27.1523V20.3945H111.289V26.5273C111.289 27.6797 111.934 28.4023 112.988 28.4023C114.004 28.4023 114.824 27.6992 114.824 26.4297ZM119.746 28.0508C119.746 25.707 121.562 24.8672 123.672 24.7305C124.434 24.6816 125.762 24.6328 126.211 24.6133V23.7539C126.211 23.0117 125.664 22.6016 124.766 22.6016C123.887 22.6016 123.34 22.9727 123.203 23.6758H120.137C120.273 21.8008 121.875 20.2578 124.844 20.2578C127.461 20.2578 129.512 21.5078 129.512 23.793V31H126.406V29.5156H126.328C125.742 30.5898 124.727 31.1953 123.242 31.1953C121.211 31.1953 119.746 30.1602 119.746 28.0508ZM122.871 27.9141C122.871 28.6367 123.438 29.0078 124.238 29.0078C125.352 29.0078 126.25 28.2852 126.23 27.2305V26.5469C125.83 26.5664 124.707 26.6152 124.219 26.6641C123.398 26.7617 122.871 27.2109 122.871 27.9141ZM131.523 31V20.3945H134.727V22.3086H134.824C135.215 20.9219 136.152 20.2383 137.324 20.2383C137.637 20.2383 137.988 20.2969 138.262 20.3555V23.2266C137.949 23.1289 137.363 23.0703 136.953 23.0703C135.723 23.0703 134.824 23.9297 134.824 25.1992V31H131.523ZM144.199 31.1953C140.879 31.1953 138.848 29.125 138.848 25.7461C138.848 22.4648 140.898 20.2578 144.082 20.2578C147.051 20.2578 149.199 22.1523 149.199 25.668V26.5078H142.09V26.5664C142.09 27.9336 142.93 28.8125 144.258 28.8125C145.156 28.8125 145.82 28.4219 146.094 27.7969H149.16C148.77 29.8672 146.953 31.1953 144.199 31.1953ZM142.09 24.5742H146.133C146.113 23.4414 145.293 22.6406 144.16 22.6406C142.988 22.6406 142.139 23.4707 142.09 24.5742Z" fill="black"/>
<path fill-rule="evenodd" clip-rule="evenodd" d="M173.707 19.0404L173 18.3334L168.02 23.313L163.04 18.3334L162.333 19.0404L167.313 24.02L162.333 29L163.04 29.707L168.02 24.7274L173 29.707L173.707 29L168.727 24.02L173.707 19.0404Z" fill="black"/>
<path fill-rule="evenodd" clip-rule="evenodd" d="M212.47 16C211.982 20.6723 209.143 24.6555 205.138 26.7846C205.025 26.8445 204.921 26.6934 205.018 26.6118C208.117 24.0411 210.144 20.256 210.342 16H206.412C205.928 19.6183 203.644 22.6782 200.475 24.2754C200.365 24.331 200.264 24.1847 200.356 24.1021C202.642 22.0853 204.135 19.2155 204.322 16H200.382C200.105 17.642 199.262 19.0648 198.18 20.25C195.519 23.1626 191.221 23.486 189.137 23.3229C189.137 23.3229 189.038 23.3067 189.007 23.3839C188.974 23.4687 189.068 23.5206 189.068 23.5206C192.535 25.4671 195.293 27.3084 200.32 31.0055C201.555 31.9137 202.721 32.1761 203.946 31.8894C211.782 30.053 216.34 21.9498 216.389 16H212.47Z" fill="#EA5507"/>
<defs>
<clipPath id="clip0_3299_320">
<rect width="40" height="40" fill="white" transform="translate(4 4)"/>
</clipPath>
</defs>
</svg>
