<svg width="180" height="48" viewBox="0 0 180 48" fill="none" xmlns="http://www.w3.org/2000/svg">
<g clip-path="url(#clip0_3189_22498)">
<path d="M14.0048 4C8.47971 4 4 8.46982 4 13.9839C4 19.4981 8.47971 23.9655 14.0048 23.9655L24.0095 13.9839C24.0095 8.46982 19.5322 4 14.0048 4Z" fill="black"/>
<path d="M14.0048 44.0002C19.5298 44.0002 24.0095 39.5304 24.0095 34.0162C24.0095 28.5021 19.5298 24.0347 14.0048 24.0347L4 34.0186C4 39.5327 8.47971 44.0026 14.0048 44.0026" fill="black"/>
<path d="M33.9953 4C28.4702 4 23.9905 8.46982 23.9905 13.9839C23.9905 19.4981 28.4702 23.9655 33.9953 23.9655L44 13.9839C44 8.46982 39.5203 4 33.9953 4Z" fill="black"/>
<path d="M33.9953 44.0002C39.5203 44.0002 44 39.5304 44 34.0162C44 28.5021 39.5203 24.0347 33.9953 24.0347L23.9905 34.0162C23.9905 39.5304 28.4702 44.0002 33.9953 44.0002Z" fill="black"/>
</g>
<path d="M69.696 17.1718L68.856 17.3638C68.376 15.8518 67.464 14.0758 65.52 14.0758C64.176 14.0758 63.192 15.0598 63.192 16.4518C63.192 17.7718 64.056 18.5158 66.168 19.5958C68.688 20.8198 70.416 22.1638 70.416 24.5398C70.416 27.2758 68.088 29.4118 64.584 29.4118C63.72 29.4118 62.88 29.2918 62.16 29.0758C61.488 28.8838 61.032 28.6918 60.72 28.5478C60.48 27.9478 60.168 25.9318 60 24.4918L60.84 24.2038C61.32 25.7398 62.736 28.4518 65.04 28.4518C66.504 28.4518 67.44 27.4438 67.44 25.9078C67.44 24.4918 66.384 23.6038 64.584 22.6438C62.136 21.3958 60.408 20.0998 60.408 17.7958C60.408 15.1558 62.496 13.0918 65.904 13.0918C67.44 13.0918 68.808 13.5718 69.24 13.7158C69.336 14.6038 69.504 15.6838 69.696 17.1718Z" fill="black"/>
<path d="M82.5293 27.9718L79.9132 29.3398C79.2653 29.3398 78.7613 29.1238 78.4493 28.8358C78.1133 28.5478 77.9453 28.2358 77.8493 27.9478C76.9373 28.5478 75.8093 29.3398 75.3293 29.3398C73.3133 29.3398 72.0892 27.7558 72.0892 26.2678C72.0892 25.0198 72.6652 24.4438 73.9132 23.9638C75.3292 23.4358 77.1772 22.8598 77.7292 22.3798V21.6598C77.7292 20.1478 77.1532 19.3078 76.2892 19.3078C75.9532 19.3078 75.6893 19.4518 75.4733 19.7398C75.2093 20.0758 74.9933 20.6518 74.8013 21.3958C74.6333 22.0198 74.2733 22.2118 73.7933 22.2118C73.1453 22.2118 72.2812 21.6358 72.2812 21.0118C72.2812 20.5798 72.5933 20.2678 73.1213 19.8598C74.0333 19.2358 75.7372 18.4198 77.1052 18.1558C78.0892 18.1558 78.8093 18.3718 79.4573 18.8518C80.4893 19.6438 80.7052 20.6758 80.7052 22.0198V25.9798C80.7052 27.1078 81.0653 27.3958 81.4733 27.3958C81.7613 27.3958 82.0252 27.3238 82.2892 27.2038L82.5293 27.9718ZM77.7292 27.1558V23.3158C77.2972 23.5558 76.9133 23.7958 76.4093 24.0598C75.6653 24.4438 75.2812 24.8758 75.2812 25.7158C75.2812 27.0358 76.1693 27.5398 76.7213 27.5398C77.0813 27.5398 77.3452 27.4438 77.7292 27.1558Z" fill="black"/>
<path d="M95.6077 29.0518H90.0158V28.2838C91.0238 28.1398 91.1437 28.0438 91.1437 26.3398V22.2598C91.1437 20.5318 90.3517 20.0038 89.4877 20.0038C88.8637 20.0038 88.3357 20.2678 87.7118 20.7478V26.5558C87.7118 28.0438 87.8318 28.1398 88.8398 28.2838V29.0518H83.0557V28.2838C84.5438 28.0678 84.6397 28.0438 84.6397 26.4358V21.4438C84.6397 20.0038 84.5198 19.9318 83.3678 19.6918V19.0198C84.7118 18.8518 86.2958 18.5158 87.7118 18.1078V19.8598C88.1917 19.5478 88.6718 19.1638 89.1998 18.8278C89.9198 18.3718 90.3758 18.1558 91.0718 18.1558C93.0158 18.1558 94.2158 19.5958 94.2158 21.9958V26.5318C94.2158 28.0438 94.3597 28.0918 95.6077 28.2838V29.0518Z" fill="black"/>
<path d="M107.694 18.5158L107.79 18.6838C107.646 19.1158 107.214 19.8838 106.758 20.1478L105.39 20.0278C105.75 20.5078 106.014 21.0598 106.014 21.8758C106.014 24.3718 103.806 25.6198 101.454 25.6198C101.022 25.6198 100.614 25.5478 100.254 25.4998C100.086 25.6918 99.918 25.9078 99.918 26.1718C99.918 26.5798 100.326 27.1078 101.478 27.0838C102.246 27.0838 102.918 27.0358 103.686 27.0358C105.198 27.0358 107.382 27.4678 107.382 29.9878C107.382 32.7238 104.166 34.9078 100.974 34.9078C97.878 34.9078 96.486 33.3238 96.486 32.0038C96.486 31.4518 96.75 31.0678 97.23 30.6838C97.806 30.2038 98.43 29.8678 99.03 29.4838C98.046 29.1238 97.59 28.6678 97.23 28.1638C96.99 27.7798 96.87 27.2038 96.894 26.8678C98.118 26.3638 98.886 25.7158 99.342 25.2838C97.878 24.8038 96.99 23.5798 96.99 22.0918C96.99 19.4038 99.486 18.1558 101.622 18.1558H101.646C102.63 18.1558 103.326 18.3478 104.214 18.7798C105.462 18.7558 106.734 18.6118 107.694 18.5158ZM101.478 19.0438C100.758 19.0438 100.062 19.9558 100.062 21.7078C100.062 23.3878 100.59 24.7318 101.718 24.7318C102.654 24.7318 103.158 23.7718 103.158 21.9958C103.158 20.4358 102.654 19.0438 101.478 19.0438ZM101.646 29.5558C100.494 29.5558 99.966 29.6758 99.63 30.0598C99.294 30.4198 99.078 30.7798 99.078 31.2598C99.078 32.4358 100.278 33.5878 102.174 33.5878C103.998 33.5878 105.078 32.6038 105.078 31.3318C105.078 30.4678 104.502 29.9638 103.734 29.7478C103.086 29.6038 102.558 29.5558 101.646 29.5558Z" fill="black"/>
<path d="M118.258 17.1718L117.418 17.3638C116.938 15.8518 116.027 14.0758 114.083 14.0758C112.739 14.0758 111.755 15.0598 111.755 16.4518C111.755 17.7718 112.618 18.5158 114.73 19.5958C117.25 20.8198 118.979 22.1638 118.979 24.5398C118.979 27.2758 116.65 29.4118 113.146 29.4118C112.282 29.4118 111.442 29.2918 110.722 29.0758C110.05 28.8838 109.595 28.6918 109.283 28.5478C109.043 27.9478 108.73 25.9318 108.562 24.4918L109.403 24.2038C109.883 25.7398 111.299 28.4518 113.603 28.4518C115.067 28.4518 116.002 27.4438 116.002 25.9078C116.002 24.4918 114.946 23.6038 113.146 22.6438C110.698 21.3958 108.971 20.0998 108.971 17.7958C108.971 15.1558 111.058 13.0918 114.466 13.0918C116.002 13.0918 117.371 13.5718 117.803 13.7158C117.899 14.6038 118.066 15.6838 118.258 17.1718Z" fill="black"/>
<path d="M132.865 34.5718H126.289V33.8038C127.969 33.6118 128.185 33.5398 128.185 32.0758V28.5238L126.265 29.3398C122.425 29.3398 120.745 26.5798 120.745 24.2278C120.745 20.8198 123.841 18.1318 127.465 18.1558C128.449 18.2278 128.929 18.3958 129.193 18.4918C129.553 18.6118 129.721 18.6358 129.985 18.6358C130.201 18.6358 130.633 18.5638 131.209 18.3478L131.329 18.4438C131.305 18.9238 131.257 19.3558 131.257 20.9878V32.0998C131.257 33.5158 131.377 33.6358 132.865 33.8038V34.5718ZM128.185 27.6598V20.1238C127.705 19.4998 127.081 19.1398 126.553 19.1398C125.473 19.1398 124.129 20.4598 124.129 23.4118C124.129 26.2918 125.977 27.8518 127.321 27.8518C127.657 27.8518 127.897 27.8038 128.185 27.6598Z" fill="black"/>
<path d="M145.666 27.7078V28.4758C144.97 28.5718 144.298 28.6918 143.506 28.8598C142.738 29.0038 141.994 29.1718 141.274 29.3398L141.058 29.1718V27.7318C140.65 28.0678 140.386 28.3078 139.858 28.6198C139.186 29.0758 138.538 29.3398 137.794 29.3398C135.802 29.3398 134.65 28.0438 134.65 25.9318V20.9638C134.65 19.8598 134.506 19.7398 133.882 19.5718L133.33 19.4038V18.7078C133.93 18.6838 134.674 18.6118 135.49 18.5398C136.282 18.4678 137.146 18.3718 137.794 18.2758C137.722 19.2838 137.722 20.5078 137.722 21.8998V25.3798C137.722 26.9398 138.538 27.4918 139.354 27.4918C140.002 27.4918 140.53 27.3478 141.058 26.8198V20.9878C141.058 19.8598 140.938 19.7158 140.29 19.5718L139.546 19.4038V18.7078C140.242 18.6838 141.082 18.6118 141.946 18.5398C142.786 18.4678 143.578 18.3718 144.13 18.2758V26.0758C144.13 27.3238 144.25 27.5638 145.138 27.6598L145.666 27.7078Z" fill="black"/>
<path d="M157.225 27.9718L154.609 29.3398C153.961 29.3398 153.457 29.1238 153.145 28.8358C152.809 28.5478 152.641 28.2358 152.545 27.9478C151.633 28.5478 150.505 29.3398 150.025 29.3398C148.009 29.3398 146.785 27.7558 146.785 26.2678C146.785 25.0198 147.361 24.4438 148.609 23.9638C150.025 23.4358 151.873 22.8598 152.425 22.3798V21.6598C152.425 20.1478 151.849 19.3078 150.985 19.3078C150.649 19.3078 150.385 19.4518 150.169 19.7398C149.905 20.0758 149.689 20.6518 149.497 21.3958C149.329 22.0198 148.969 22.2118 148.489 22.2118C147.841 22.2118 146.977 21.6358 146.977 21.0118C146.977 20.5798 147.289 20.2678 147.817 19.8598C148.729 19.2358 150.433 18.4198 151.801 18.1558C152.785 18.1558 153.505 18.3718 154.153 18.8518C155.185 19.6438 155.401 20.6758 155.401 22.0198V25.9798C155.401 27.1078 155.761 27.3958 156.169 27.3958C156.457 27.3958 156.721 27.3238 156.985 27.2038L157.225 27.9718ZM152.425 27.1558V23.3158C151.993 23.5558 151.609 23.7958 151.105 24.0598C150.361 24.4438 149.977 24.8758 149.977 25.7158C149.977 27.0358 150.865 27.5398 151.417 27.5398C151.777 27.5398 152.041 27.4438 152.425 27.1558Z" fill="black"/>
<path d="M162.407 20.6758H162.455C163.343 19.1878 164.255 18.1558 165.167 18.1558C166.103 18.1558 166.775 18.8278 166.775 19.6438C166.775 20.5078 166.223 21.1798 165.599 21.4198C165.263 21.5398 165.023 21.4678 164.855 21.3238C164.447 20.9878 164.135 20.8198 163.751 20.8198C163.295 20.8198 162.815 21.1318 162.407 22.0678V26.5558C162.407 28.0198 162.527 28.1398 164.375 28.2838V29.0518H157.799V28.2838C159.119 28.1398 159.335 28.0198 159.335 26.5558V21.2998C159.335 20.0758 159.167 19.9798 158.039 19.7158V19.0438C159.479 18.8518 160.919 18.5878 162.407 18.1318V20.6758Z" fill="black"/>
<path d="M176.243 26.0998L176.651 26.6758C175.211 28.8598 173.339 29.3398 172.331 29.3398C169.115 29.3398 167.363 26.9638 167.363 24.2038C167.363 22.3798 168.131 20.8678 169.139 19.8598C170.195 18.8038 171.515 18.1558 172.811 18.1558H172.835C175.067 18.1558 176.747 20.0518 176.747 22.0198C176.723 22.4998 176.579 22.8118 176.051 22.8838C175.619 22.9558 172.667 23.1718 170.315 23.2678C170.411 25.8358 171.827 27.1318 173.555 27.1318C174.491 27.1318 175.403 26.8198 176.243 26.0998ZM172.331 19.1158C171.395 19.1158 170.579 20.2438 170.411 22.1398C171.419 22.1158 172.307 22.0918 173.291 22.0678C173.651 22.0678 173.795 21.9958 173.795 21.5878C173.819 20.3638 173.267 19.1158 172.331 19.1158Z" fill="black"/>
<defs>
<clipPath id="clip0_3189_22498">
<rect width="40" height="40" fill="white" transform="translate(4 4)"/>
</clipPath>
</defs>
</svg>
