<svg width="220" height="48" viewBox="0 0 220 48" fill="none" xmlns="http://www.w3.org/2000/svg">
<g clip-path="url(#clip0_201_10353)">
<path d="M11.0033 10C7.1358 10 4 13.1289 4 16.9888C4 20.8486 7.1358 23.9759 11.0033 23.9759L18.0067 16.9888C18.0067 13.1289 14.8726 10 11.0033 10Z" fill="black"/>
<path d="M11.0033 38C14.8709 38 18.0067 34.8712 18.0067 31.0113C18.0067 27.1514 14.8709 24.0242 11.0033 24.0242L4 31.0129C4 34.8728 7.1358 38.0017 11.0033 38.0017" fill="black"/>
<path d="M24.9967 10C21.1291 10 17.9933 13.1289 17.9933 16.9888C17.9933 20.8486 21.1291 23.9759 24.9967 23.9759L32 16.9888C32 13.1289 28.8642 10 24.9967 10Z" fill="black"/>
<path d="M24.9967 38C28.8642 38 32 34.8712 32 31.0113C32 27.1514 28.8642 24.0242 24.9967 24.0242L17.9933 31.0113C17.9933 34.8712 21.1291 38 24.9967 38Z" fill="black"/>
</g>
<path d="M52.7109 21.0586C52.6328 20.0234 51.8711 19.418 50.5039 19.418C49.1562 19.418 48.4727 20.0039 48.4531 20.8047C48.4336 21.6836 49.293 22.1133 50.5625 22.3867L51.793 22.6797C54.5078 23.2852 56.0898 24.6328 56.1094 26.8984C56.0898 29.5742 54.0195 31.1953 50.5039 31.1953C46.9883 31.1953 44.7031 29.5938 44.6445 26.3516H47.8477C47.9258 27.7188 48.9414 28.4219 50.4648 28.4219C51.8711 28.4219 52.7109 27.7969 52.7305 26.8984C52.7109 26.0781 51.9883 25.6484 50.4258 25.2969L48.9414 24.9453C46.5 24.3789 45.0156 23.168 45.0156 21.0391C44.9961 18.4219 47.3203 16.6641 50.5234 16.6641C53.7852 16.6641 55.875 18.4414 55.9141 21.0586H52.7109ZM64.5664 22.6602V25.1992H58.043V22.6602H64.5664ZM74.5469 21.0586C74.4688 20.0234 73.707 19.418 72.3398 19.418C70.9922 19.418 70.3086 20.0039 70.2891 20.8047C70.2695 21.6836 71.1289 22.1133 72.3984 22.3867L73.6289 22.6797C76.3438 23.2852 77.9258 24.6328 77.9453 26.8984C77.9258 29.5742 75.8555 31.1953 72.3398 31.1953C68.8242 31.1953 66.5391 29.5938 66.4805 26.3516H69.6836C69.7617 27.7188 70.7773 28.4219 72.3008 28.4219C73.707 28.4219 74.5469 27.7969 74.5664 26.8984C74.5469 26.0781 73.8242 25.6484 72.2617 25.2969L70.7773 24.9453C68.3359 24.3789 66.8516 23.168 66.8516 21.0391C66.832 18.4219 69.1562 16.6641 72.3594 16.6641C75.6211 16.6641 77.7109 18.4414 77.75 21.0586H74.5469ZM86.5977 34.9844V29.2812H86.5195C86.0898 30.2383 85.1523 31.1562 83.5312 31.1562C81.168 31.1562 79.2734 29.3008 79.2734 25.707C79.2734 21.9766 81.2852 20.2578 83.5117 20.2578C85.2109 20.2578 86.1094 21.2539 86.5195 22.2109H86.6172V20.3945H89.8789V34.9844H86.5977ZM84.6445 28.5781C85.9141 28.5781 86.6562 27.4453 86.6562 25.6875C86.6562 23.9297 85.9336 22.8359 84.6445 22.8359C83.3555 22.8359 82.6523 23.9688 82.6523 25.6875C82.6523 27.4453 83.375 28.5781 84.6445 28.5781ZM98.8242 26.4297V20.3945H102.105V31H98.9805V29.0469H98.8633C98.3945 30.3164 97.2227 31.1367 95.6211 31.1367C93.4531 31.1367 91.9883 29.5742 91.9883 27.1523V20.3945H95.2891V26.5273C95.2891 27.6797 95.9336 28.4023 96.9883 28.4023C98.0039 28.4023 98.8242 27.6992 98.8242 26.4297ZM103.746 28.0508C103.746 25.707 105.562 24.8672 107.672 24.7305C108.434 24.6816 109.762 24.6328 110.211 24.6133V23.7539C110.211 23.0117 109.664 22.6016 108.766 22.6016C107.887 22.6016 107.34 22.9727 107.203 23.6758H104.137C104.273 21.8008 105.875 20.2578 108.844 20.2578C111.461 20.2578 113.512 21.5078 113.512 23.793V31H110.406V29.5156H110.328C109.742 30.5898 108.727 31.1953 107.242 31.1953C105.211 31.1953 103.746 30.1602 103.746 28.0508ZM106.871 27.9141C106.871 28.6367 107.438 29.0078 108.238 29.0078C109.352 29.0078 110.25 28.2852 110.23 27.2305V26.5469C109.83 26.5664 108.707 26.6152 108.219 26.6641C107.398 26.7617 106.871 27.2109 106.871 27.9141ZM115.523 31V20.3945H118.727V22.3086H118.824C119.215 20.9219 120.152 20.2383 121.324 20.2383C121.637 20.2383 121.988 20.2969 122.262 20.3555V23.2266C121.949 23.1289 121.363 23.0703 120.953 23.0703C119.723 23.0703 118.824 23.9297 118.824 25.1992V31H115.523ZM128.199 31.1953C124.879 31.1953 122.848 29.125 122.848 25.7461C122.848 22.4648 124.898 20.2578 128.082 20.2578C131.051 20.2578 133.199 22.1523 133.199 25.668V26.5078H126.09V26.5664C126.09 27.9336 126.93 28.8125 128.258 28.8125C129.156 28.8125 129.82 28.4219 130.094 27.7969H133.16C132.77 29.8672 130.953 31.1953 128.199 31.1953ZM126.09 24.5742H130.133C130.113 23.4414 129.293 22.6406 128.16 22.6406C126.988 22.6406 126.139 23.4707 126.09 24.5742Z" fill="black"/>
<path fill-rule="evenodd" clip-rule="evenodd" d="M157.707 19.0403L157 18.3333L152.02 23.3129L147.04 18.3333L146.333 19.0403L151.313 24.0199L146.333 28.9999L147.04 29.7069L152.02 24.7273L157 29.7069L157.707 28.9999L152.727 24.0199L157.707 19.0403Z" fill="black"/>
<path fill-rule="evenodd" clip-rule="evenodd" d="M196.47 16C195.982 20.6723 193.143 24.6556 189.138 26.7846C189.025 26.8445 188.921 26.6934 189.018 26.6118C192.117 24.0411 194.144 20.256 194.342 16H190.412C189.928 19.6183 187.644 22.6782 184.475 24.2754C184.365 24.331 184.264 24.1847 184.356 24.1021C186.642 22.0853 188.135 19.2155 188.322 16H184.382C184.105 17.642 183.262 19.0648 182.18 20.25C179.519 23.1626 175.221 23.486 173.137 23.3229C173.137 23.3229 173.038 23.3067 173.007 23.3839C172.974 23.4687 173.068 23.5206 173.068 23.5206C176.535 25.4671 179.293 27.3084 184.32 31.0055C185.555 31.9137 186.721 32.1761 187.946 31.8894C195.782 30.053 200.34 21.9498 200.389 16H196.47Z" fill="#EA5507"/>
<defs>
<clipPath id="clip0_201_10353">
<rect width="28" height="28" fill="white" transform="translate(4 10)"/>
</clipPath>
</defs>
</svg>
