<svg width="48" height="48" viewBox="0 0 48 48" fill="none" xmlns="http://www.w3.org/2000/svg">
<rect x="1.5" y="1.5" width="45" height="45" rx="22.5" fill="white"/>
<rect x="1.5" y="1.5" width="45" height="45" rx="22.5" stroke="black" stroke-width="3"/>
<path d="M18.5384 19.6895H14.3988V33.0631H18.5384V19.6895Z" fill="black"/>
<path d="M16.4475 13C15.0938 13 14 14.1059 14 15.4656C14 16.8254 15.0938 17.9313 16.4475 17.9313C17.8012 17.9313 18.895 16.8254 18.895 15.4656C18.895 14.1059 17.8012 13 16.4475 13Z" fill="black"/>
<path d="M29.1805 19.2788C26.3463 19.2788 25.1497 21.4906 25.1497 21.4906V19.6897H21.1793V33.0634H25.1497V26.0472C25.1497 24.1678 26.0139 23.0498 27.6697 23.0498C29.1926 23.0498 29.9238 24.1255 29.9238 26.0472V33.0634H34.0453V24.5968C34.0453 21.0132 32.0148 19.2849 29.1805 19.2849V19.2788Z" fill="black"/>
</svg>
